<?xml version="1.0" encoding="utf-8"?>
<!-- Generator: Adobe Illustrator 16.0.0, SVG Export Plug-In . SVG Version: 6.00 Build 0)  -->
<!DOCTYPE svg PUBLIC "-//W3C//DTD SVG 1.1//EN" "http://www.w3.org/Graphics/SVG/1.1/DTD/svg11.dtd">
<svg version="1.1" id="Layer_1" xmlns="http://www.w3.org/2000/svg" xmlns:xlink="http://www.w3.org/1999/xlink" x="0px" y="0px"
	 width="512px" height="512px" viewBox="0 0 512 512" enable-background="new 0 0 512 512" xml:space="preserve">
<image display="none" overflow="visible" width="1024" height="1024" xlink:href="../../../../../../Users/Z Series/Downloads/ChatGPT Image Sep 1, 2025, 09_22_13 AM.png"  transform="matrix(1 0 0 1 -1808.2441 -385.4316)">
</image>
<g>
	<path fill-rule="evenodd" clip-rule="evenodd" fill="#042A43" d="M425.354,77.852c0.416,24.686-0.65,49.336-4.228,73.788
		c-6.926,47.334-21.982,91.57-50.935,130.297c-26.766,35.806-60.416,63.423-100.279,83.54c-5.34,2.698-10.686,5.394-16.099,7.94
		c-0.975,0.458-2.497,0.614-3.426,0.182c-26.266-12.228-51.465-26.202-73.696-45.049c-39.767-33.714-67.574-75.316-83.065-125.166
		c-6.578-21.163-10.714-42.763-13.215-64.753c-3.479-30.575-3.461-61.226-2.718-91.917c0.055-2.253,1.111-2.928,2.771-3.669
		c31.041-13.86,63.124-24.711,96.315-31.922c17.61-3.826,35.485-6.673,53.371-8.904c17.196-2.145,34.505-1.221,51.746,0.917
		c48.621,6.031,94.881,20.406,139.962,39.078c2.522,1.044,3.652,2.224,3.585,5.191C425.211,57.548,425.354,67.702,425.354,77.852z
		 M326.911,167.501c-3.951,1.434-7.787,2.57-11.41,4.183c-26.718,11.881-38.665,38.43-29.191,65.601
		c7.691,22.061,23.843,36.978,43.206,49.779c0.445-0.721,0.686-1.278,1.07-1.704c19.396-21.471,35.141-45.246,45.604-72.345
		c9.913-25.67,15.89-52.247,18.832-79.595c2.411-22.415,2.917-44.865,2.567-67.366c-0.031-1.919-0.135-3.35-2.447-4.233
		c-25.877-9.87-51.928-19.176-79.053-25.091c-20.27-4.421-40.697-8.078-61.479-8.352c-19.285-0.254-38.32,2.785-57.216,6.459
		c-27.586,5.366-54.305,13.719-80.537,23.692c-3.605,1.37-8.476,2.017-10.318,4.686c-1.906,2.756-0.975,7.567-1.041,11.484
		c-0.437,25.749,0.893,51.404,4.909,76.855c1.573,9.968,3.95,19.808,5.961,29.708c8.097-28.265,23.037-51.009,48.441-66.318
		c-15.629,3.43-29.62,9.954-42.109,20.569c1.666-8.542,5.054-15.57,10.266-21.789c6.843-8.164,15.251-14.42,24.385-19.63
		c34.911-19.913,72.438-26.836,112.136-21.354c14.814,2.047,28.848,6.993,41.063,15.98c7.994,5.88,15.116,12.563,16.079,23.578
		c0.955,0.133,1.967,0.251,2.974,0.417c13.172,2.147,24.589,7.799,33.389,17.887c8.102,9.283,8.674,20.483,6.535,31.975
		c-1.647,8.857-6.033,16.191-13.287,22.135c1.875-11.957-2.441-19.442-13.933-21.882c-8.133-1.727-16.666-2.273-25.003-2.167
		c-14.426,0.186-27.986,4.07-39.766,12.753c-3.948,2.91-7.385,6.516-11.058,9.803c0.262,0.388,0.523,0.772,0.783,1.16
		C285.038,171.43,304.789,165.632,326.911,167.501z M194.264,224.936c-0.01,0.002-0.173-0.005-0.224,0.067
		c-0.255,0.364-0.526,0.727-0.711,1.127c-8.399,18.143-9.043,36.875-3.778,55.884c3.65,13.178,9.6,25.257,20.313,34.193
		c12.086,10.08,25.775,17.674,40.007,24.293c1.946,0.904,1.979,0.836,3.43-1.35C216.747,309.799,191.652,274.524,194.264,224.936z
		 M170.618,159.735c-1.156,0.917-2.312,1.837-3.469,2.754c-15.521,12.295-26.459,27.746-31.457,46.996
		c-1.455,5.602-3.224,11.945-1.955,17.257c2.439,10.221,8.244,19.257,14.465,27.958
		C142.098,219.792,150.059,188.377,170.618,159.735z M240.17,105.516c7.577,2.13,14.229,4.001,20.271,5.7
		c0.33,2.474,0.298,4.224,0.819,5.785c2.002,5.962,6.31,9.67,12.366,10.829c6.314,1.209,12.111-0.139,16.737-5.092
		c0.818-0.878,2.087-1.619,3.256-1.834c4.516-0.829,9.021-1.555,12.87-5.216C284.948,109.112,263.934,101.79,240.17,105.516z"/>
	<g>
		<path fill-rule="evenodd" clip-rule="evenodd" fill="#042A43" d="M403.028,412.257c-7.094-2.54-14.438-3.106-21.8-2.363
			c-13.509,1.36-24.623,7.083-32.094,18.891c-6.008,9.496-7.808,20.021-7.995,31.038c0.369,4.127,0.482,8.296,1.16,12.373
			c2.487,14.968,9.128,27.196,23.399,34.099c7.851,3.8,16.245,5.244,24.855,4.529c17.138-1.421,30.374-8.974,36.979-25.563
			c6.722-16.886,6.716-34.004-0.318-50.764C422.634,423.58,414.243,416.272,403.028,412.257z M407.931,473.854
			c-2.7,10.663-10.392,17.097-20.389,17.542c-9.679,0.431-18.28-5.756-21.581-16.14c-3.37-10.608-3.207-21.345,0.677-31.823
			c3.354-9.048,10.659-14.153,19.638-14.234c9.315-0.086,16.956,4.73,20.221,13.844c1.979,5.532,2.668,11.526,3.715,16.299
			C409.343,465.039,409.021,469.544,407.931,473.854z"/>
		<path fill-rule="evenodd" clip-rule="evenodd" fill="#042A43" d="M328.82,444.064c0.572-16.824-9.915-30.087-26.521-31.337
			c-15.952-1.2-32.031-0.684-48.054-0.903c-0.182-0.003-0.365,0.227-0.604,0.385c0,32.112,0,64.254,0,96.451
			c7.148,0,14.136,0,21.493,0c0-11.052,0-21.942,0-33.073c3.692,0,7.027,0.136,10.345-0.049c2.144-0.12,3.267,0.653,4.29,2.528
			c5.176,9.492,10.474,18.915,15.837,28.301c0.586,1.024,1.859,2.322,2.843,2.349c7.344,0.198,14.693,0.107,22.578,0.107
			c-6.926-12.207-13.6-23.978-20.412-35.984C325.999,464.807,328.449,455,328.82,444.064z M294.218,457.459
			c-6.195,0.307-12.421,0.062-18.882,0.062c0-8.964,0-17.764,0-26.925c6.793,0,13.363-0.253,19.906,0.068
			c6.801,0.339,11.161,6.019,11.124,13.753C306.327,452.16,301.965,457.074,294.218,457.459z"/>
		<path fill-rule="evenodd" clip-rule="evenodd" fill="#042A43" d="M133.09,413.821c-0.619-1.771-1.644-2.128-3.328-2.108
			c-6.576,0.077-13.155,0.145-19.727-0.025c-2.352-0.06-3.367,0.65-4.134,2.923c-3.89,11.528-7.999,22.981-12.022,34.465
			c-6.977,19.914-13.949,39.83-21.034,60.063c6.791,0,13.335-0.122,19.873,0.064c2.473,0.07,3.663-0.601,4.365-3.066
			c1.588-5.595,3.505-11.098,5.375-16.91c11.027,0,21.861-0.047,32.693,0.098c0.81,0.01,1.997,1.257,2.336,2.176
			c1.865,5.059,3.466,10.214,5.301,15.285c0.32,0.886,1.311,2.159,2.018,2.176c7.107,0.162,14.22,0.099,21.255,0.099
			c0.099-0.422,0.176-0.552,0.144-0.644C155.158,476.887,144.094,445.364,133.09,413.821z M108.103,471.201
			c3.806-11.589,7.572-23.063,11.542-35.152c3.952,12.033,7.696,23.435,11.543,35.152
			C123.417,471.201,115.924,471.201,108.103,471.201z"/>
		<path fill-rule="evenodd" clip-rule="evenodd" fill="#042A43" d="M73.392,429.722c-5.121-12.226-15.763-17.128-28.19-17.686
			c-14.162-0.636-28.371-0.246-42.561-0.287c-0.527-0.003-1.056,0.153-1.568,0.232c0,32.483,0,64.731,0,96.957
			c7.387,0,14.569,0,21.981,0c0-10.712,0-21.17,0-31.966c1.579,0,2.938,0.037,4.292-0.007c6.791-0.216,13.622-0.071,20.361-0.783
			c8.207-0.866,15.856-3.827,21.182-10.4C77.764,454.831,78.69,442.377,73.392,429.722z M54.203,446.089
			c-0.226,6.57-4.12,11.456-10.631,11.961c-6.731,0.522-13.535,0.117-20.477,0.117c0-9.173,0-18.116,0-27.762
			c7.24,0.344,14.398,0.202,21.407,1.161C51.214,432.484,54.477,438.033,54.203,446.089z"/>
		<path fill-rule="evenodd" clip-rule="evenodd" fill="#042A43" d="M160.595,430.827c9.69,0,19.085,0,28.775,0
			c0,26.29,0,52.204,0,77.996c7.426,0,14.543,0,22.075,0c0-26.092,0-51.974,0-78.13c9.593,0,18.775,0,28.113,0
			c0-6.437,0-12.594,0-18.713c-26.455,0-52.694,0-78.964,0C160.595,418.231,160.595,424.227,160.595,430.827z"/>
		<path fill-rule="evenodd" clip-rule="evenodd" fill="#042A43" d="M468.906,489.625c0-13.482,0-26.396,0-39.31
			c0-12.869,0-25.735,0-38.505c-7.688,0-14.889,0-22.04,0c0,32.396,0,64.547,0,96.808c21.47,0,42.746,0,64.061,0
			c0-6.367,0-12.527,0-18.993C496.913,489.625,483.112,489.625,468.906,489.625z"/>
	</g>
	<path fill-rule="evenodd" clip-rule="evenodd" fill="#FFFFFF" d="M326.911,167.501c-22.122-1.869-41.873,3.928-59.646,16.878
		c-0.26-0.388-0.521-0.772-0.783-1.16c3.673-3.288,7.109-6.893,11.058-9.803c11.779-8.683,25.34-12.568,39.766-12.753
		c8.337-0.106,16.87,0.439,25.003,2.167c11.491,2.439,15.808,9.925,13.933,21.882c7.254-5.944,11.64-13.278,13.287-22.135
		c2.139-11.492,1.566-22.692-6.535-31.975c-8.8-10.087-20.217-15.739-33.389-17.887c-1.007-0.166-2.019-0.284-2.974-0.417
		c-0.963-11.015-8.085-17.697-16.079-23.578c-12.215-8.987-26.248-13.933-41.063-15.98c-39.697-5.483-77.225,1.441-112.136,21.354
		c-9.134,5.209-17.542,11.466-24.385,19.63c-5.212,6.218-8.601,13.247-10.266,21.789c12.489-10.615,26.48-17.139,42.109-20.569
		c-25.405,15.309-40.344,38.053-48.441,66.318c-2.011-9.9-4.388-19.741-5.961-29.708c-4.016-25.451-5.345-51.106-4.909-76.855
		c0.066-3.917-0.865-8.728,1.041-11.484c1.842-2.669,6.713-3.316,10.318-4.686c26.232-9.974,52.95-18.327,80.537-23.692
		c18.896-3.674,37.931-6.713,57.216-6.459c20.781,0.273,41.209,3.93,61.479,8.352c27.125,5.916,53.176,15.222,79.053,25.091
		c2.313,0.883,2.416,2.313,2.447,4.233c0.35,22.501-0.156,44.952-2.567,67.366c-2.942,27.349-8.919,53.925-18.832,79.595
		c-10.464,27.1-26.208,50.875-45.604,72.345c-0.385,0.426-0.625,0.983-1.07,1.704c-19.363-12.801-35.515-27.718-43.206-49.779
		c-9.474-27.171,2.474-53.72,29.191-65.601C319.124,170.071,322.96,168.935,326.911,167.501z"/>
	<path fill-rule="evenodd" clip-rule="evenodd" fill="#FFFFFF" d="M194.264,224.936c-2.612,49.589,22.483,84.863,59.036,114.215
		c-1.45,2.186-1.483,2.254-3.43,1.35c-14.231-6.619-27.921-14.213-40.007-24.293c-10.713-8.937-16.662-21.016-20.313-34.193
		c-5.265-19.009-4.621-37.741,3.778-55.884c0.185-0.4,0.456-0.764,0.711-1.127C194.091,224.931,194.254,224.938,194.264,224.936z"/>
	<path fill-rule="evenodd" clip-rule="evenodd" fill="#FFFFFF" d="M170.618,159.735c-20.559,28.643-28.52,60.058-22.416,94.965
		c-6.221-8.701-12.026-17.737-14.465-27.958c-1.269-5.313,0.5-11.655,1.955-17.257c4.998-19.25,15.936-34.7,31.457-46.996
		C168.307,161.572,169.462,160.652,170.618,159.735z"/>
	<path fill-rule="evenodd" clip-rule="evenodd" fill="#FFFFFF" d="M240.17,105.516c23.764-3.727,44.778,3.596,66.319,10.172
		c-3.849,3.661-8.354,4.387-12.87,5.216c-1.169,0.215-2.438,0.957-3.256,1.834c-4.626,4.953-10.423,6.301-16.737,5.092
		c-6.057-1.159-10.364-4.867-12.366-10.829c-0.521-1.561-0.489-3.312-0.819-5.785C254.398,109.518,247.747,107.646,240.17,105.516z"
		/>
</g>
</svg>
